<svg width="322" height="322" data-name="Layer 1" version="1.1" viewBox="0 0 322 322" xmlns="http://www.w3.org/2000/svg">
 <defs>
  <style>.cls-1{fill:#fff;}.cls-2{fill:#2e7f56;}.cls-3{fill:#ce994a;}.cls-4{fill:#2fa86e;}.cls-5{fill:#c15700;}</style>
 </defs>
 <g stroke-width="1.5346">
  <path d="m44.764 155.61h-1.1049a16.374 16.374 0 0 1-11.31-5.5552l-0.99748-1.1356a16.481 16.481 0 0 1 1.5346-23.249l13.412-11.77a16.497 16.497 0 0 1 23.234 1.5346l1.0128 1.1509a16.481 16.481 0 0 1-1.5346 23.234l-13.412 11.786a16.343 16.343 0 0 1-10.834 4.0053zm12.277-38.119a8.7011 8.7011 0 0 0-5.6319 2.2405l-13.412 11.77a8.7625 8.7625 0 0 0-0.81333 12.277l1.0128 1.1356a8.6244 8.6244 0 0 0 5.9696 3.0231 8.5323 8.5323 0 0 0 6.3379-2.1331l13.412-11.77a8.7625 8.7625 0 0 0 0.79799-12.277l-1.0282-1.2277a8.7318 8.7318 0 0 0-6.568-2.9771z"/>
  <path class="cls-1" d="m52.115 156.27-0.99748-1.1816 18.553-15.607a15.714 15.714 0 0 0 1.3811-22.144l-1.0128-1.1356 1.1509-1.0282 1.0128 1.1509a17.249 17.249 0 0 1-1.5346 24.323z"/>
  <path d="m93.61 119.69h-1.0896a16.313 16.313 0 0 1-11.31-5.5552l-1.0128-1.1356a16.497 16.497 0 0 1 1.5346-23.249l13.412-11.77a16.497 16.497 0 0 1 23.234 1.5346l1.0128 1.1509a16.481 16.481 0 0 1-1.5346 23.234l-13.412 11.786a16.313 16.313 0 0 1-10.834 4.0053zm12.369-38.135a8.7318 8.7318 0 0 0-5.7701 2.1791l-13.412 11.77a8.7779 8.7779 0 0 0-0.79799 12.277l1.0128 1.1509a8.7472 8.7472 0 0 0 6.0002 2.9464 8.6244 8.6244 0 0 0 6.3532-2.1484l13.428-11.694a8.7779 8.7779 0 0 0 0.79798-12.353l-1.0128-1.1509a8.7318 8.7318 0 0 0-6.5987-2.9771z"/>
  <rect transform="rotate(-27.98)" x="-9.3771" y="131.36" width="53.68" height="11.862" rx="3.3301"/>
  <path class="cls-2" d="m256.37 125.72a29.418 29.418 0 0 0-12.139 2.6855c-5.2023-10.619-12.476-18.077-20.748-20.441 5.6473-4.7879 11.985-11.494 16.175-15.684a93.134 93.134 0 0 0 14.011-18.292c4.0206-6.2765 5.3864-16.758-0.23019-23.295s-14.671-5.7394-18.799-5.4938c-0.79799 0-1.5346 0.12277-2.2252 0.23019-2.9618 0.42968-8.3942-0.5678-10.113-3.0692-0.50642-0.72126-0.18415-1.6267 0.82868-2.3786a23.126 23.126 0 1 0-41.28-20.211 107.94 107.94 0 0 0-51.716 5.279 23.133 23.133 0 1 0-36.508 28.421 35.48 35.48 0 0 0-1.9336 4.3736c-0.98214 2.7469-2.3326 3.5142-6.1384 5.3711h-0.39899c-4.0667 0.7366-13.167 2.394-16.88 9.8214-3.8979 7.6729 0 17.54 5.3404 22.666 3.2687 3.0692 8.7779 6.5527 16.067 11.387-0.18415 0.24554 0 0.42969 0.84402 0.5678a71.052 71.052 0 0 0 18.415 9.0541c-5.678 3.0692-10.742 8.609-14.671 15.99a29.157 29.157 0 0 0-10.236-1.9029c-20.548 0.0614-37.229 21.929-37.229 48.907 0 28.298 20.564 51.439 20.564 51.439h197.96s28.282-25.72 28.282-56.58c0.046-26.978-16.62-48.846-37.244-48.846z"/>
  <path d="m266.25 233.45h-199.91l-0.69057-0.78264c-0.85937-0.9668-21.147-24.124-21.147-52.959 0-28.206 17.755-51.148 39.577-51.148a31.045 31.045 0 0 1 9.2075 1.4118 42.8 42.8 0 0 1 10.589-12.568 76.423 76.423 0 0 1-14.21-7.5195 3.0692 3.0692 0 0 1-1.9489-1.2891l-2.8236-1.8568a103.05 103.05 0 0 1-12.845-9.2996c-6.1384-5.8008-10.22-16.666-5.8008-25.382 4.2508-8.517 14.318-10.266 18.553-11.034 3.4068-1.6727 4.0206-2.1331 4.6038-3.9286a33.423 33.423 0 0 1 1.3965-3.3454 25.566 25.566 0 0 1-4.6038-11.74 25.474 25.474 0 0 1 22.344-28.344 25.566 25.566 0 0 1 22.328 8.6704 110.84 110.84 0 0 1 49.444-5.0948 25.428 25.428 0 1 1 44.718 24.016l-0.29157 0.41434a12.277 12.277 0 0 0 7.2893 1.5346c0.7366-0.10742 1.5346-0.18415 2.4093-0.24553 4.3276-0.26088 14.502-0.89006 20.686 6.2918 6.1844 7.1819 4.9567 18.937 0.41434 26.088l-0.98214 1.5346a90.326 90.326 0 0 1-13.336 17.126l-2.9464 2.9771c-3.0692 3.1766-6.8136 6.9517-10.466 10.282 6.7062 3.1766 12.768 9.5145 17.448 18.308a31.214 31.214 0 0 1 11.049-2.0564c21.837 0 39.592 23.019 39.592 51.148 0 31.52-27.853 57.21-29.05 58.314zm-197.82-4.6038h196.03c4.1127-3.9899 26.901-27.346 26.901-54.278 0-25.658-15.699-46.544-34.989-46.544a27.024 27.024 0 0 0-11.187 2.486l-2.0256 0.92075-0.98214-2.0103c-5.0488-10.282-11.908-17.111-19.32-19.244l-4.1434-1.1816 3.284-2.793c4.3582-3.683 9.2075-8.5937 13.059-12.538l2.9771-3.0692a86.106 86.106 0 0 0 12.691-16.313l0.99749-1.5346c3.7137-5.7854 4.7112-15.039 0-20.548s-12.937-4.9414-16.88-4.6958c-0.72126 0-1.3965 0.10742-2.041 0.1995-3.5296 0.52176-9.9595-0.59849-12.277-3.9592a3.8365 3.8365 0 0 1 0.95145-5.2483 20.456 20.456 0 0 0 2.8083-13.182 20.824 20.824 0 0 0-40.298-4.7419l-0.59849 1.7494-1.8415-0.27623a105.69 105.69 0 0 0-50.641 5.1716l-1.5346 0.58314-1.0282-1.3658a20.947 20.947 0 0 0-19.167-8.1947 20.809 20.809 0 0 0-13.673 33.761l0.9361 1.1663-0.69057 1.3351a33.408 33.408 0 0 0-1.8108 4.082c-1.2737 3.6063-3.2533 4.7112-7.2433 6.6601l-0.29157 0.15346-0.70591 0.12277c-3.9132 0.70591-12.047 2.1791-15.346 8.5937-3.2994 6.4146-0.10742 15.238 4.8646 19.95a98.091 98.091 0 0 0 12.2 8.7779l3.5602 2.3479 0.84402 0.5678a68.688 68.688 0 0 0 17.909 8.8239l5.2943 1.6267-4.9414 2.5781c-5.2023 2.7776-9.9595 7.9645-13.811 15.039l-0.87471 1.8415-1.8875-0.69057a26.579 26.579 0 0 0-9.4224-1.7648c-19.29-0.046-34.973 20.87-34.973 46.498 0 24.247 15.883 44.963 19.336 49.138z"/>
  <path class="cls-1" d="m226.8 26.709c0 10.65-6.0309 17.08-15.254 17.08-9.2229 0-18.17-6.4299-18.17-17.08 0-10.65 7.4734-19.274 16.712-19.274s16.712 8.6244 16.712 19.274z"/>
  <path d="m211.54 46.091c-13.305 0-20.487-9.9748-20.487-19.382 0-11.893 8.5323-21.576 19.014-21.576s19.029 9.6833 19.029 21.576c0 11.893-6.8903 19.382-17.556 19.382zm-1.4579-36.354c-7.9492 0-14.41 7.673-14.41 16.973 0 9.6065 8.1794 14.778 15.868 14.778 8.1026 0 12.952-5.5245 12.952-14.778 0-9.2536-6.4606-16.973-14.41-16.973z"/>
  <path class="cls-1" d="m123.95 39.569c0 10.65-8.0719 15.208-18.001 15.208-9.9288 0-18.001-4.6038-18.001-15.208 0-10.604 8.0566-19.29 18.001-19.29 9.9441 0 18.001 8.6397 18.001 19.29z"/>
  <path d="m105.95 57.079c-12.522 0-20.303-6.7062-20.303-17.51 0-11.908 9.1001-21.592 20.303-21.592 11.202 0 20.303 9.6833 20.303 21.592 0 10.804-7.7804 17.51-20.303 17.51zm0-34.498c-8.6704 0-15.699 7.6729-15.699 16.988 0 11.648 10.972 12.906 15.699 12.906 4.7265 0 15.699-1.2123 15.699-12.906 0-9.361-7.0438-16.988-15.699-16.988z"/>
  <path class="cls-3" d="m112.26 39.569c0 10.65-5.4324 17.786-12.154 17.786-6.7215 0-12.154-7.1358-12.154-17.786s5.4324-19.29 12.154-19.29c6.7215 0 12.154 8.6397 12.154 19.29z"/>
  <path d="m100.1 59.657c-8.3789 0-14.456-8.4556-14.456-20.088 0-12.108 6.3532-21.592 14.456-21.592 8.1026 0 14.456 9.4838 14.456 21.592 0 11.694-6.077 20.088-14.456 20.088zm0-37.076c-5.3404 0-9.8521 7.7804-9.8521 16.988 0 8.8239 4.2355 15.484 9.8521 15.484 5.6166 0 9.8521-6.6601 9.8521-15.484 0-9.2075-4.5117-16.988-9.8521-16.988z"/>
  <path class="cls-3" d="m226.7 25.313c1.2584 10.358-2.9464 17.418-9.0387 18.17-6.0923 0.75195-11.709-5.1409-12.983-15.484s2.6548-19.336 8.7318-20.088c6.077-0.75195 12.031 7.0591 13.29 17.402z"/>
  <path d="m216.64 45.845a11.908 11.908 0 0 1-8.9927-4.435 24.369 24.369 0 0 1-5.233-13.167 29.05 29.05 0 0 1 1.7801-14.839c1.9796-4.6038 5.1562-7.3507 8.9467-7.8111 7.4428-0.92075 14.41 7.673 15.852 19.413a23.94 23.94 0 0 1-2.0103 14.026 11.801 11.801 0 0 1-9.0234 6.6908 9.714 9.714 0 0 1-1.3198 0.12277zm-2.44-35.679h-0.50641c-2.8236 0.35296-4.527 3.3301-5.279 5.0795a24.553 24.553 0 0 0-1.4425 12.446 20.149 20.149 0 0 0 4.1434 10.742 7.274 7.274 0 0 0 6.2765 2.8083 7.366 7.366 0 0 0 5.5092-4.2662 19.766 19.766 0 0 0 1.5346-11.341c-1.1509-9.4991-6.123-15.469-10.236-15.469z"/>
  <path class="cls-2" d="m85.17 63.278c8.6244-4.2355 9.5298-6.1384 13.228-9.2075 8.5477-7.1819 12.952-9.76 17.31-11.694 14.41-6.4299 31.091-9.0541 46.774-9.8674a201.55 201.55 0 0 1 38.227 3.0692c9.76 1.8262 11.847 7.4428 29.848 10.006"/>
  <path d="m99.84 73.008s2.8083 0.84402 10.957-1.4118c11.939-3.3147 18.323-9.6372 28.467-14.701a62.918 62.918 0 0 1 37.367-5.7394c14.763 1.5346 29.311 8.3942 40.467 10.926 5.2483 1.197 10.957-1.4118 13.627-1.1509 2.6702 0.26088 0.96679 1.5346-0.24554 2.486-5.8314 4.4196-30.4 6.9977-68.596 10.742-17.863 1.6574-48.907 2.6548-62.289 1.3197-0.72126-0.06138-1.1049-2.1945 0.24554-2.4707z"/>
  <path d="m120.08 234.74c-8.2254 0-16.88-15.07-20.149-21.561-13.397-26.088-20.487-64.453-4.3889-86.858l3.7291 2.6855c-14.962 20.794-8.0259 57.117 4.7572 82.085 6.7062 13.075 13.013 19.044 16.052 19.044z"/>
  <path d="m211.54 234.74v-4.6038c6.2151 0 14.87-9.407 22.037-23.97 17.678-35.909 15.346-69.762 3.8825-84.648l3.637-2.7316c16.282 21.162 10.619 61.031-3.3914 89.482-8.2868 16.788-17.847 26.472-26.165 26.472z"/>
  <path d="m51.808 179.22a16.405 16.405 0 0 0-11.632-4.834h-1.5346a16.481 16.481 0 0 0-16.389 16.528v17.847a16.481 16.481 0 0 0 16.466 16.466h1.5346a16.481 16.481 0 0 0 16.374-16.528v-17.786a16.267 16.267 0 0 0-4.8186-11.694zm-2.885 29.479a8.7472 8.7472 0 0 1-8.7472 8.7472h-1.5346a8.7472 8.7472 0 0 1-8.7472-8.7472v-17.786a8.7472 8.7472 0 0 1 8.7472-8.7472h1.5346a8.7779 8.7779 0 0 1 8.7472 8.7472z"/>
  <rect transform="rotate(-80.1)" x="-181.36" y="65.554" width="53.68" height="11.862" rx="3.3301"/>
  <ellipse cx="98.797" cy="39.6" rx="4.9721" ry="13.458"/>
  <ellipse transform="rotate(-6.94)" cx="211.94" cy="53.922" rx="5.1255" ry="13.842"/>
  <path class="cls-2" d="m126.28 38.817c-14.517 1.3658-22.052 8.118-26.963 12.277-4.1281 3.4682-7.9645 12.277-14.118 12.277"/>
  <path d="m85.17 64.813v-3.0692c3.4068 0 6.1384-3.5756 8.8699-7.0438a32.119 32.119 0 0 1 4.2662-4.8186l0.5371-0.46038c5.0948-4.2815 12.783-10.742 27.27-12.139l0.29157 3.0692c-13.535 1.2737-20.794 7.3814-25.582 11.417l-0.5371 0.46038a29.802 29.802 0 0 0-3.8211 4.3582c-2.9618 3.8825-6.3532 8.2254-11.295 8.2254z"/>
  <path class="cls-2" d="m192.12 34.106c8.9313-2.6548 16.88 2.1791 22.236 5.1255 6.6601 3.6216 10.619 6.2151 16.236 6.2304"/>
  <path d="m230.57 47.764c-5.5552 0-9.5758-2.2405-15.131-5.3097l-3.1766-1.7494c-5.0642-2.793-12.016-6.6141-19.489-4.3889l-1.3198-4.4043c9.3303-2.7776 17.571 1.7494 23.019 4.7572l0.96679 0.53711 2.2252 1.2123c5.3097 2.9464 8.5323 4.7265 12.921 4.7419z"/>
  <ellipse class="cls-4" cx="170.23" cy="183.33" rx="42.355" ry="45.117"/>
  <path d="m170.23 230.81c-24.63 0-44.672-21.269-44.672-47.403s20.042-47.419 44.672-47.419 44.657 21.269 44.657 47.419-20.042 47.403-44.657 47.403zm0-90.219c-22.098 0-40.068 19.198-40.068 42.815s17.924 42.8 40.068 42.8c22.144 0 40.053-19.198 40.053-42.8s-17.97-42.892-40.053-42.892z"/>
  <circle class="cls-4" cx="76.469" cy="220.76" r="21.96"/>
  <path d="m76.469 244.25c-23.525 0-23.525-11.417-23.525-23.495a23.495 23.495 0 0 1 46.989 0c0.0307 12.077 0.0307 23.495-23.464 23.495zm0-43.92a20.441 20.441 0 0 0-20.456 20.425c0 12.277 0 20.425 20.425 20.425 20.425 0 20.425-8.1333 20.425-20.425a20.441 20.441 0 0 0-20.395-20.425z"/>
  <circle class="cls-4" cx="134.43" cy="220.76" r="21.96"/>
  <path d="m134.43 245.02c-24.262 0-24.262-12.277-24.262-24.262a24.262 24.262 0 0 1 48.524 0c0 11.924 0 24.262-24.262 24.262zm0-43.92a19.689 19.689 0 0 0-19.658 19.658c0 12.277 0 19.658 19.658 19.658 19.658 0 19.658-7.3967 19.658-19.658a19.689 19.689 0 0 0-19.658-19.658z"/>
  <ellipse class="cls-5" cx="76.116" cy="233.66" rx="19.044" ry="9.9595"/>
  <path d="m76.116 245.14c-11.54 0-20.579-5.0488-20.579-11.494 0-6.4453 9.0387-11.479 20.579-11.479 11.54 0 20.594 5.0488 20.594 11.479 0 6.4299-9.0541 11.494-20.594 11.494zm0-19.95c-10.481 0-17.51 4.3582-17.51 8.4096 0 4.0513 7.0284 8.4249 17.51 8.4249 10.481 0 17.525-4.3582 17.525-8.4249 0-4.0667-7.0438-8.3635-17.525-8.3635z"/>
  <circle class="cls-4" cx="97.047" cy="220.76" r="21.96"/>
  <path d="m97.047 244.25c-23.495 0-23.495-11.417-23.495-23.495a23.495 23.495 0 1 1 46.974 0c-0.0614 12.077-0.0614 23.495-23.479 23.495zm0-43.92a20.441 20.441 0 0 0-20.425 20.425c0 12.277 0 20.425 20.425 20.425 20.425 0 20.349-8.1333 20.349-20.425a20.441 20.441 0 0 0-20.349-20.425z"/>
  <ellipse class="cls-5" cx="97.047" cy="233.66" rx="19.044" ry="9.9595"/>
  <path d="m97.047 245.14c-11.555 0-20.594-5.0488-20.594-11.494 0-6.4453 9.0387-11.479 20.594-11.479 11.555 0 20.579 5.0488 20.579 11.479 0 6.4299-9.0387 11.494-20.579 11.494zm0-19.95c-10.481 0-17.525 4.3582-17.525 8.4096 0 4.0513 7.0438 8.4249 17.525 8.4249 10.481 0 17.51-4.3582 17.51-8.4249 0-4.0667-7.0438-8.3635-17.51-8.3635z"/>
  <circle class="cls-4" cx="112.47" cy="220.76" r="21.96"/>
  <path d="m112.47 244.25c-23.479 0-23.479-11.417-23.479-23.495a23.495 23.495 0 1 1 46.974 0c0 12.077 0 23.495-23.495 23.495zm0-43.92a20.441 20.441 0 0 0-20.41 20.425c0 12.277 0 20.425 20.41 20.425 20.41 0 20.425-8.1333 20.425-20.425a20.441 20.441 0 0 0-20.425-20.425z"/>
  <circle class="cls-4" cx="203.35" cy="220.39" r="21.96"/>
  <path d="m203.33 244.62c-24.262 0-24.262-12.277-24.262-24.262a24.262 24.262 0 1 1 48.524 0c0.0154 11.985 0.0154 24.262-24.262 24.262zm0-43.92a19.689 19.689 0 0 0-19.658 19.658c0 12.277 0 19.658 19.658 19.658 19.658 0 19.658-7.4121 19.658-19.658a19.689 19.689 0 0 0-19.658-19.627z"/>
  <circle class="cls-4" cx="248.77" cy="220.76" r="21.96"/>
  <path d="m248.77 245.02c-24.247 0-24.247-12.277-24.247-24.262a24.262 24.262 0 1 1 48.508 0c0 11.924 0 24.262-24.262 24.262zm0-43.92a19.673 19.673 0 0 0-19.643 19.658c0 12.277 0 19.658 19.643 19.658 19.643 0 19.658-7.3967 19.658-19.658a19.673 19.673 0 0 0-19.658-19.658z"/>
  <path class="cls-3" d="m274.54 270.71s19.95-15.776 24.722-18.139l0.0921-12.614a3.8979 3.8979 0 0 0-3.4835-4.2201l-123.73-0.90541v-6.7829a5.2176 5.2176 0 0 0-5.1716-5.2483l-21.208-0.15346 0.15346-21.147a1.995 1.995 0 0 0-0.59849-1.5346l-15.024-15.192a2.087 2.087 0 0 0-1.5346-0.62918l-58.928-0.49107a2.087 2.087 0 0 0-1.5346 0.59849l-15.346 15.085a2.1331 2.1331 0 0 0-0.61384 1.5346l-0.72126 99.886a2.0103 2.0103 0 0 0 0.58314 1.5346l15.1 15.346a2.0717 2.0717 0 0 0 1.5346 0.61384l59.082 0.42968a2.1177 2.1177 0 0 0 1.5346-0.59849l15.346-15.085a2.0717 2.0717 0 0 0 0.61383-1.4579l0.13812-18.737 21.193 0.15346a5.2176 5.2176 0 0 0 5.2483-5.1716v-4.4043l24.016 0.18415 6.9517-3.3301h9.6219l6.7062 4.0053h35.618l5.5092-3.3761zm-188.94-20.916a13.213 13.213 0 1 1-13.105-13.29 13.197 13.197 0 0 1 13.105 13.29z"/>
  <path d="m127.86 320.83-59.082-0.42969a4.3429 4.3429 0 0 1-3.0692-1.3044l-15.085-15.346a4.2815 4.2815 0 0 1-1.2584-3.0692l0.72126-99.886a4.3582 4.3582 0 0 1 1.3044-3.0692l15.346-15.1a4.4043 4.4043 0 0 1 3.0692-1.2584l59.082 0.42969a4.481 4.481 0 0 1 3.0692 1.3044l15.085 15.346a4.3429 4.3429 0 0 1 1.2584 3.0692l-0.21485 18.829 18.906 0.13811a7.5195 7.5195 0 0 1 7.4581 7.5655v4.481l121.43 0.89007a5.5706 5.5706 0 0 1 4.2355 2.087 6.9057 6.9057 0 0 1 1.5346 4.4503l-0.10742 14.042-1.2737 0.62918c-3.7751 1.8415-18.829 13.535-24.308 17.878l-0.62918 0.49107h-14.41l-5.5092 3.3761h-36.83l-6.7215-4.0053h-8.5323l-6.967 3.3301-22.236-0.15346v2.087a7.5195 7.5195 0 0 1-7.5042 7.4581l-18.891-0.13811-0.18415 16.451a4.4043 4.4043 0 0 1-1.3044 3.0692l-15.346 15.085a4.3275 4.3275 0 0 1-3.0385 1.2737zm-58.99-5.0335 58.898 0.42969 15.177-14.947 0.15346-20.947 23.495 0.1688a3.0692 3.0692 0 0 0 2.0717-0.84402 2.839 2.839 0 0 0 0.85937-2.041v-6.7062l25.781 0.19949 6.9517-3.3301h10.742l6.7215 4.0053h34.313l5.5245-3.3761h14.103c3.5142-2.7776 17.479-13.811 23.234-17.187v-11.279a2.3326 2.3326 0 0 0-0.47572-1.5346 0.99748 0.99748 0 0 0-0.72126-0.41434l-126.04-0.92075v-9.0848a2.9157 2.9157 0 0 0-2.9004-2.9311l-23.28-0.13811 0.16881-23.356-14.947-15.177-58.882-0.42968-15.177 14.962-0.72126 99.748zm3.5296-50.641h-0.12277a15.499 15.499 0 0 1 0.12277-30.999h0.10742a15.515 15.515 0 0 1 15.346 15.607 15.515 15.515 0 0 1-15.453 15.438zm0-26.395a10.896 10.896 0 0 0-0.09208 21.791 10.896 10.896 0 0 0 10.988-10.742 10.865 10.865 0 0 0-10.819-10.972z"/>
  <rect transform="rotate(50.76)" x="179.86" y="91.472" width="62.627" height="11.862" rx="3.0231"/>
  <circle class="cls-4" cx="225.31" cy="220.39" r="21.96"/>
  <path d="m225.31 244.62c-24.262 0-24.262-12.277-24.262-24.262a24.262 24.262 0 1 1 48.524 0c0 11.985 0 24.262-24.262 24.262zm0-43.92a19.689 19.689 0 0 0-19.658 19.658c0 12.277 0 19.658 19.658 19.658 19.658 0 19.658-7.4121 19.658-19.658a19.689 19.689 0 0 0-19.658-19.627z"/>
  <rect x="72.816" y="260.57" width="3.8365" height="59.435"/>
  <rect x="73.2" y="181.52" width="3.0692" height="59.435"/>
  <rect x="83.589" y="182.32" width="3.8365" height="137.7"/>
  <rect x="94.807" y="182.75" width="3.8365" height="136.64"/>
  <rect x="106.02" y="182.75" width="3.8365" height="136.64"/>
 </g>
 <text transform="matrix(1,0,0,1.3342,-18.814,-85.095)" fill="#1a1a1a" font-family="monospace" font-size="180px" letter-spacing="-4.29px" style="line-height:0;shape-inside:url(#rect4718);white-space:pre" xml:space="preserve"/>
</svg>
