<svg data-name="Layer 1" version="1.1" viewBox="0 0 728.12 208.53" xmlns="http://www.w3.org/2000/svg">
 <defs>
  <style>.cls-1{fill:#fff;}.cls-2{fill:#2e7f56;}.cls-3{fill:#ce994a;}.cls-4{fill:#2fa86e;}.cls-5{fill:#c15700;}</style>
 </defs>
 <path transform="translate(-7.95,-5.14)" d="m22.67 105h-0.72a10.67 10.67 0 0 1-7.37-3.62l-0.65-0.74a10.74 10.74 0 0 1 1-15.15l8.74-7.67a10.75 10.75 0 0 1 15.14 1l0.66 0.75a10.74 10.74 0 0 1-1 15.14l-8.74 7.68a10.65 10.65 0 0 1-7.06 2.61zm8-24.84a5.67 5.67 0 0 0-3.67 1.46l-8.74 7.67a5.71 5.71 0 0 0-0.53 8l0.66 0.74a5.62 5.62 0 0 0 3.89 1.97 5.56 5.56 0 0 0 4.13-1.39l8.74-7.67a5.71 5.71 0 0 0 0.52-8l-0.67-0.8a5.69 5.69 0 0 0-4.28-1.94z"/>
 <path class="cls-1" transform="translate(-7.95,-5.14)" d="m27.46 105.43-0.65-0.77 12.09-10.17a10.24 10.24 0 0 0 0.9-14.43l-0.66-0.74 0.75-0.67 0.66 0.75a11.24 11.24 0 0 1-1 15.85z"/>
 <path transform="translate(-7.95,-5.14)" d="m54.5 81.59h-0.71a10.63 10.63 0 0 1-7.37-3.62l-0.66-0.74a10.75 10.75 0 0 1 1-15.15l8.74-7.67a10.75 10.75 0 0 1 15.14 1l0.66 0.75a10.74 10.74 0 0 1-1 15.14l-8.74 7.68a10.63 10.63 0 0 1-7.06 2.61zm8.06-24.85a5.69 5.69 0 0 0-3.76 1.42l-8.74 7.67a5.72 5.72 0 0 0-0.52 8l0.66 0.75a5.7 5.7 0 0 0 3.91 1.92 5.62 5.62 0 0 0 4.14-1.4l8.75-7.62a5.72 5.72 0 0 0 0.52-8.05l-0.66-0.75a5.69 5.69 0 0 0-4.3-1.94z"/>
 <rect transform="rotate(-27.98 31.254 90.658)" x="28.04" y="73.39" width="34.98" height="7.73" rx="2.17"/>
 <path class="cls-2" transform="translate(-7.95,-5.14)" d="m160.56 85.52a19.17 19.17 0 0 0-7.91 1.75c-3.39-6.92-8.13-11.78-13.52-13.32 3.68-3.12 7.81-7.49 10.54-10.22a60.69 60.69 0 0 0 9.13-11.92c2.62-4.09 3.51-10.92-0.15-15.18s-9.56-3.74-12.25-3.58c-0.52 0-1 0.08-1.45 0.15-1.93 0.28-5.47-0.37-6.59-2-0.33-0.47-0.12-1.06 0.54-1.55a15.07 15.07 0 1 0-26.9-13.17 70.34 70.34 0 0 0-33.7 3.44 15.074 15.074 0 1 0-23.79 18.52 23.12 23.12 0 0 0-1.26 2.85c-0.64 1.79-1.52 2.29-4 3.5h-0.26c-2.65 0.48-8.58 1.56-11 6.4-2.54 5 0 11.43 3.48 14.77 2.13 2 5.72 4.27 10.47 7.42-0.12 0.16 0 0.28 0.55 0.37a46.3 46.3 0 0 0 12 5.9c-3.7 2-7 5.61-9.56 10.42a19 19 0 0 0-6.67-1.24c-13.39 0.04-24.26 14.29-24.26 31.87 0 18.44 13.4 33.52 13.4 33.52h129s18.43-16.76 18.43-36.87c0.03-17.58-10.83-31.83-24.27-31.83z"/>
 <path transform="translate(-7.95,-5.14)" d="m167 155.72h-130.27l-0.45-0.51c-0.56-0.63-13.78-15.72-13.78-34.51 0-18.38 11.57-33.33 25.79-33.33a20.23 20.23 0 0 1 6 0.92 27.89 27.89 0 0 1 6.9-8.19 49.8 49.8 0 0 1-9.26-4.9 2 2 0 0 1-1.27-0.84l-1.84-1.21a67.15 67.15 0 0 1-8.37-6.06c-4-3.78-6.66-10.86-3.78-16.54 2.77-5.55 9.33-6.69 12.09-7.19 2.22-1.09 2.62-1.39 3-2.56a21.78 21.78 0 0 1 0.91-2.18 16.66 16.66 0 0 1-3-7.65 16.6 16.6 0 0 1 14.56-18.47 16.66 16.66 0 0 1 14.55 5.65 72.23 72.23 0 0 1 32.22-3.32 16.57 16.57 0 1 1 29.14 15.65l-0.19 0.27a8 8 0 0 0 4.75 1c0.48-0.07 1-0.12 1.57-0.16 2.82-0.17 9.45-0.58 13.48 4.1s3.23 12.34 0.27 17l-0.64 1a58.86 58.86 0 0 1-8.69 11.16l-1.92 1.94c-2 2.07-4.44 4.53-6.82 6.7 4.37 2.07 8.32 6.2 11.37 11.93a20.34 20.34 0 0 1 7.2-1.34c14.23 0 25.8 15 25.8 33.33 0 20.54-18.15 37.28-18.93 38zm-128.91-3h127.74c2.68-2.6 17.53-17.82 17.53-35.37 0-16.72-10.23-30.33-22.8-30.33a17.61 17.61 0 0 0-7.29 1.62l-1.32 0.6-0.64-1.31c-3.29-6.7-7.76-11.15-12.59-12.54l-2.7-0.77 2.14-1.82c2.84-2.4 6-5.6 8.51-8.17l1.94-2a56.11 56.11 0 0 0 8.27-10.63l0.65-1c2.42-3.77 3.07-9.8 0-13.39s-8.43-3.22-11-3.06c-0.47 0-0.91 0.07-1.33 0.13-2.3 0.34-6.49-0.39-8-2.58a2.5 2.5 0 0 1 0.62-3.42 13.33 13.33 0 0 0 1.83-8.59 13.57 13.57 0 0 0-26.26-3.09l-0.39 1.14-1.2-0.18a68.87 68.87 0 0 0-33 3.37l-1 0.38-0.67-0.89a13.65 13.65 0 0 0-12.49-5.34 13.56 13.56 0 0 0-8.91 22l0.61 0.76-0.45 0.87a21.77 21.77 0 0 0-1.18 2.66c-0.83 2.35-2.12 3.07-4.72 4.34l-0.19 0.1-0.46 0.08c-2.55 0.46-7.85 1.42-10 5.6s-0.07 9.93 3.17 13a63.92 63.92 0 0 0 7.95 5.72l2.32 1.53 0.55 0.37a44.76 44.76 0 0 0 11.67 5.75l3.45 1.06-3.22 1.68c-3.39 1.81-6.49 5.19-9 9.8l-0.57 1.2-1.23-0.45a17.32 17.32 0 0 0-6.14-1.15c-12.57-0.03-22.79 13.6-22.79 30.3 0 15.8 10.35 29.3 12.6 32.02z"/>
 <path class="cls-1" transform="translate(-7.95,-5.14)" d="m141.29 21c0 6.94-3.93 11.13-9.94 11.13s-11.84-4.19-11.84-11.13 4.87-12.56 10.89-12.56 10.89 5.62 10.89 12.56z"/>
 <path transform="translate(-7.95,-5.14)" d="m131.35 33.63c-8.67 0-13.35-6.5-13.35-12.63 0-7.75 5.56-14.06 12.39-14.06s12.4 6.31 12.4 14.06-4.49 12.63-11.44 12.63zm-0.95-23.69c-5.18 0-9.39 5-9.39 11.06 0 6.26 5.33 9.63 10.34 9.63 5.28 0 8.44-3.6 8.44-9.63s-4.21-11.06-9.39-11.06z"/>
 <path class="cls-1" transform="translate(-7.95,-5.14)" d="m74.27 29.38c0 6.94-5.26 9.91-11.73 9.91s-11.73-3-11.73-9.91 5.25-12.57 11.73-12.57 11.73 5.63 11.73 12.57z"/>
 <path transform="translate(-7.95,-5.14)" d="m62.54 40.79c-8.16 0-13.23-4.37-13.23-11.41 0-7.76 5.93-14.07 13.23-14.07s13.23 6.31 13.23 14.07c0 7.04-5.07 11.41-13.23 11.41zm0-22.48c-5.65 0-10.23 5-10.23 11.07 0 7.59 7.15 8.41 10.23 8.41s10.23-0.79 10.23-8.41c0-6.1-4.59-11.07-10.23-11.07z"/>
 <path class="cls-3" transform="translate(-7.95,-5.14)" d="m66.65 29.38c0 6.94-3.54 11.59-7.92 11.59s-7.92-4.65-7.92-11.59 3.54-12.57 7.92-12.57 7.92 5.63 7.92 12.57z"/>
 <path transform="translate(-7.95,-5.14)" d="m58.73 42.47c-5.46 0-9.42-5.51-9.42-13.09 0-7.89 4.14-14.07 9.42-14.07s9.42 6.18 9.42 14.07c0 7.62-3.96 13.09-9.42 13.09zm0-24.16c-3.48 0-6.42 5.07-6.42 11.07 0 5.75 2.76 10.09 6.42 10.09s6.42-4.34 6.42-10.09c0-6-2.94-11.07-6.42-11.07z"/>
 <path class="cls-3" transform="translate(-7.95,-5.14)" d="m141.23 20.09c0.82 6.75-1.92 11.35-5.89 11.84s-7.63-3.35-8.46-10.09 1.73-12.6 5.69-13.09 7.84 4.6 8.66 11.34z"/>
 <path transform="translate(-7.95,-5.14)" d="m134.67 33.47a7.76 7.76 0 0 1-5.86-2.89 15.88 15.88 0 0 1-3.41-8.58 18.93 18.93 0 0 1 1.16-9.67c1.29-3 3.36-4.79 5.83-5.09 4.85-0.6 9.39 5 10.33 12.65a15.6 15.6 0 0 1-1.31 9.14 7.69 7.69 0 0 1-5.88 4.36 6.33 6.33 0 0 1-0.86 0.08zm-1.59-23.25h-0.33c-1.84 0.23-2.95 2.17-3.44 3.31a16 16 0 0 0-0.94 8.11 13.13 13.13 0 0 0 2.7 7 4.74 4.74 0 0 0 4.09 1.83 4.8 4.8 0 0 0 3.59-2.78 12.88 12.88 0 0 0 1-7.39c-0.75-6.19-3.99-10.08-6.67-10.08z"/>
 <path class="cls-2" transform="translate(-7.95,-5.14)" d="m49 44.83c5.62-2.76 6.21-4 8.62-6 5.57-4.68 8.44-6.36 11.28-7.62 9.39-4.19 20.26-5.9 30.48-6.43a131.34 131.34 0 0 1 24.91 2c6.36 1.19 7.72 4.85 19.45 6.52"/>
 <path transform="translate(-7.95,-5.14)" d="m58.56 51.17s1.83 0.55 7.14-0.92c7.78-2.16 11.94-6.28 18.55-9.58a41 41 0 0 1 24.35-3.74c9.62 1 19.1 5.47 26.37 7.12 3.42 0.78 7.14-0.92 8.88-0.75s0.63 1-0.16 1.62c-3.8 2.88-19.81 4.56-44.7 7-11.64 1.08-31.87 1.73-40.59 0.86-0.47-0.04-0.72-1.43 0.16-1.61z"/>
 <path transform="translate(-7.95,-5.14)" d="m71.75 156.56c-5.36 0-11-9.82-13.13-14.05-8.73-17-13.35-42-2.86-56.6l2.43 1.75c-9.75 13.55-5.23 37.22 3.1 53.49 4.37 8.52 8.48 12.41 10.46 12.41z"/>
 <path transform="translate(-7.95,-5.14)" d="m131.35 156.56v-3c4.05 0 9.69-6.13 14.36-15.62 11.52-23.4 10-45.46 2.53-55.16l2.37-1.78c10.61 13.79 6.92 39.77-2.21 58.31-5.4 10.94-11.63 17.25-17.05 17.25z"/>
 <path transform="translate(-7.95,-5.14)" d="m27.26 120.38a10.69 10.69 0 0 0-7.58-3.15h-1a10.74 10.74 0 0 0-10.68 10.77v11.63a10.74 10.74 0 0 0 10.73 10.73h1a10.74 10.74 0 0 0 10.67-10.77v-11.59a10.6 10.6 0 0 0-3.14-7.62zm-1.88 19.21a5.7 5.7 0 0 1-5.7 5.7h-1a5.7 5.7 0 0 1-5.7-5.7v-11.59a5.7 5.7 0 0 1 5.7-5.7h1a5.72 5.72 0 0 1 5.7 5.7z"/>
 <rect transform="rotate(-80.1 15.054 112.94)" x="4.58" y="106.91" width="34.98" height="7.73" rx="2.17"/>
 <ellipse cx="49.93" cy="24.26" rx="3.24" ry="8.77"/>
 <ellipse transform="rotate(-6.94 88.547 84.737)" cx="134.84" cy="21.78" rx="3.34" ry="9.02"/>
 <path class="cls-2" transform="translate(-7.95,-5.14)" d="m75.79 28.89c-9.46 0.89-14.37 5.29-17.57 8-2.69 2.26-5.19 8-9.2 8"/>
 <path transform="translate(-7.95,-5.14)" d="m49 45.83v-2c2.22 0 4-2.33 5.78-4.59a20.93 20.93 0 0 1 2.78-3.14l0.35-0.3c3.32-2.79 8.33-7 17.77-7.91l0.19 2c-8.82 0.83-13.55 4.81-16.67 7.44l-0.35 0.3a19.42 19.42 0 0 0-2.49 2.84c-1.93 2.53-4.14 5.36-7.36 5.36z"/>
 <path class="cls-2" transform="translate(-7.95,-5.14)" d="m118.69 25.82c5.82-1.73 11 1.42 14.49 3.34 4.34 2.36 6.92 4.05 10.58 4.06"/>
 <path transform="translate(-7.95,-5.14)" d="m143.75 34.72c-3.62 0-6.24-1.46-9.86-3.46l-2.07-1.14c-3.3-1.82-7.83-4.31-12.7-2.86l-0.86-2.87c6.08-1.81 11.45 1.14 15 3.1l0.63 0.35 1.45 0.79c3.46 1.92 5.56 3.08 8.42 3.09z"/>
 <ellipse class="cls-4" cx="96.48" cy="117.92" rx="27.6" ry="29.4"/>
 <path transform="translate(-7.95,-5.14)" d="m104.43 154c-16.05 0-29.11-13.86-29.11-30.89s13.06-30.9 29.11-30.9 29.1 13.86 29.1 30.9-13.06 30.89-29.1 30.89zm0-58.79c-14.4 0-26.11 12.51-26.11 27.9s11.68 27.89 26.11 27.89 26.1-12.51 26.1-27.89-11.71-27.95-26.1-27.95z"/>
 <circle class="cls-4" cx="35.38" cy="142.31" r="14.31"/>
 <path transform="translate(-7.95,-5.14)" d="m43.33 162.76c-15.33 0-15.33-7.44-15.33-15.31a15.31 15.31 0 0 1 30.62 0c0.02 7.87 0.02 15.31-15.29 15.31zm0-28.62a13.32 13.32 0 0 0-13.33 13.31c0 8 0 13.31 13.31 13.31s13.31-5.3 13.31-13.31a13.32 13.32 0 0 0-13.29-13.31z"/>
 <circle class="cls-4" cx="73.15" cy="142.31" r="14.31"/>
 <path transform="translate(-7.95,-5.14)" d="m81.1 163.26c-15.81 0-15.81-8-15.81-15.81a15.81 15.81 0 0 1 31.62 0c0 7.77 0 15.81-15.81 15.81zm0-28.62a12.83 12.83 0 0 0-12.81 12.81c0 8 0 12.81 12.81 12.81s12.81-4.82 12.81-12.81a12.83 12.83 0 0 0-12.81-12.81z"/>
 <ellipse class="cls-5" cx="35.15" cy="150.72" rx="12.41" ry="6.49"/>
 <path transform="translate(-7.95,-5.14)" d="m43.1 163.34c-7.52 0-13.41-3.29-13.41-7.49s5.89-7.48 13.41-7.48 13.42 3.29 13.42 7.48-5.9 7.49-13.42 7.49zm0-13c-6.83 0-11.41 2.84-11.41 5.48s4.58 5.49 11.41 5.49 11.42-2.84 11.42-5.49-4.59-5.45-11.42-5.45z"/>
 <circle class="cls-4" cx="48.79" cy="142.31" r="14.31"/>
 <path transform="translate(-7.95,-5.14)" d="m56.74 162.76c-15.31 0-15.31-7.44-15.31-15.31a15.31 15.31 0 1 1 30.61 0c-0.04 7.87-0.04 15.31-15.3 15.31zm0-28.62a13.32 13.32 0 0 0-13.31 13.31c0 8 0 13.31 13.31 13.31s13.26-5.3 13.26-13.31a13.32 13.32 0 0 0-13.26-13.31z"/>
 <ellipse class="cls-5" cx="48.79" cy="150.72" rx="12.41" ry="6.49"/>
 <path transform="translate(-7.95,-5.14)" d="m56.74 163.34c-7.53 0-13.42-3.29-13.42-7.49s5.89-7.48 13.42-7.48 13.41 3.29 13.41 7.48-5.89 7.49-13.41 7.49zm0-13c-6.83 0-11.42 2.84-11.42 5.48s4.59 5.49 11.42 5.49 11.41-2.84 11.41-5.49-4.59-5.45-11.41-5.45z"/>
 <circle class="cls-4" cx="58.84" cy="142.31" r="14.31"/>
 <path transform="translate(-7.95,-5.14)" d="m66.79 162.76c-15.3 0-15.3-7.44-15.3-15.31a15.31 15.31 0 1 1 30.61 0c0 7.87 0 15.31-15.31 15.31zm0-28.62a13.32 13.32 0 0 0-13.3 13.31c0 8 0 13.31 13.3 13.31s13.31-5.3 13.31-13.31a13.32 13.32 0 0 0-13.31-13.31z"/>
 <circle class="cls-4" cx="118.06" cy="142.07" r="14.31"/>
 <path transform="translate(-7.95,-5.14)" d="m126 163c-15.81 0-15.81-8-15.81-15.81a15.81 15.81 0 1 1 31.62 0c0.01 7.81 0.01 15.81-15.81 15.81zm0-28.62a12.83 12.83 0 0 0-12.81 12.81c0 8 0 12.81 12.81 12.81s12.81-4.83 12.81-12.81a12.83 12.83 0 0 0-12.81-12.79z"/>
 <circle class="cls-4" cx="147.66" cy="142.31" r="14.31"/>
 <path transform="translate(-7.95,-5.14)" d="m155.61 163.26c-15.8 0-15.8-8-15.8-15.81a15.81 15.81 0 1 1 31.61 0c0 7.77 0 15.81-15.81 15.81zm0-28.62a12.82 12.82 0 0 0-12.8 12.81c0 8 0 12.81 12.8 12.81s12.81-4.82 12.81-12.81a12.82 12.82 0 0 0-12.81-12.81z"/>
 <path class="cls-3" transform="translate(-7.95,-5.14)" d="m172.4 180s13-10.28 16.11-11.82l0.06-8.22a2.54 2.54 0 0 0-2.27-2.75l-80.63-0.59v-4.42a3.4 3.4 0 0 0-3.37-3.42l-13.82-0.1 0.1-13.78a1.3 1.3 0 0 0-0.39-1l-9.79-9.9a1.36 1.36 0 0 0-1-0.41l-38.4-0.32a1.36 1.36 0 0 0-1 0.39l-10 9.83a1.39 1.39 0 0 0-0.4 1l-0.47 65.09a1.31 1.31 0 0 0 0.38 1l9.84 10a1.35 1.35 0 0 0 1 0.4l38.5 0.28a1.38 1.38 0 0 0 1-0.39l10-9.83a1.35 1.35 0 0 0 0.4-0.95l0.09-12.21 13.81 0.1a3.4 3.4 0 0 0 3.42-3.37v-2.87l15.65 0.12 4.53-2.17h6.27l4.37 2.61h23.21l3.59-2.2zm-123.12-13.63a8.61 8.61 0 1 1-8.54-8.66 8.6 8.6 0 0 1 8.54 8.66z"/>
 <path transform="translate(-7.95,-5.14)" d="m76.82 212.66-38.5-0.28a2.83 2.83 0 0 1-2-0.85l-9.83-10a2.79 2.79 0 0 1-0.82-2l0.47-65.09a2.84 2.84 0 0 1 0.85-2l10-9.84a2.87 2.87 0 0 1 2-0.82l38.5 0.28a2.92 2.92 0 0 1 2 0.85l9.83 10a2.83 2.83 0 0 1 0.82 2l-0.14 12.27 12.32 0.09a4.9 4.9 0 0 1 4.86 4.93v2.92l79.13 0.58a3.63 3.63 0 0 1 2.76 1.36 4.5 4.5 0 0 1 1 2.9l-0.07 9.15-0.83 0.41c-2.46 1.2-12.27 8.82-15.84 11.65l-0.41 0.32h-9.39l-3.59 2.2h-24l-4.38-2.61h-5.56l-4.54 2.17-14.49-0.1v1.36a4.9 4.9 0 0 1-4.89 4.86l-12.31-0.09-0.12 10.72a2.87 2.87 0 0 1-0.85 2l-10 9.83a2.82 2.82 0 0 1-1.98 0.83zm-38.44-3.28 38.38 0.28 9.89-9.74 0.1-13.65 15.31 0.11a2 2 0 0 0 1.35-0.55 1.85 1.85 0 0 0 0.56-1.33v-4.37l16.8 0.13 4.53-2.17h7l4.38 2.61h22.36l3.6-2.2h9.19c2.29-1.81 11.39-9 15.14-11.2v-7.35a1.52 1.52 0 0 0-0.31-1 0.65 0.65 0 0 0-0.47-0.27l-82.13-0.6v-5.92a1.9 1.9 0 0 0-1.89-1.91l-15.17-0.09 0.11-15.22-9.74-9.89-38.37-0.28-9.89 9.75-0.47 65zm2.3-33h-0.08a10.1 10.1 0 0 1 0.08-20.2h0.07a10.11 10.11 0 0 1 10 10.17 10.11 10.11 0 0 1-10.07 10.06zm0-17.2a7.1001 7.1001 0 0 0-0.06 14.2 7.1 7.1 0 0 0 7.16-7 7.08 7.08 0 0 0-7.05-7.15z"/>
 <rect transform="rotate(50.76 32.834 139.37)" x="10.99" y="146.46" width="40.81" height="7.73" rx="1.97"/>
 <circle class="cls-4" cx="132.37" cy="142.07" r="14.31"/>
 <path transform="translate(-7.95,-5.14)" d="m140.32 163c-15.81 0-15.81-8-15.81-15.81a15.81 15.81 0 1 1 31.62 0c0 7.81 0 15.81-15.81 15.81zm0-28.62a12.83 12.83 0 0 0-12.81 12.81c0 8 0 12.81 12.81 12.81s12.81-4.83 12.81-12.81a12.83 12.83 0 0 0-12.81-12.79z"/>
 <rect x="33" y="168.25" width="2.5" height="38.73"/>
 <rect x="33.25" y="116.74" width="2" height="38.73"/>
 <rect x="40.02" y="117.26" width="2.5" height="89.73"/>
 <rect x="47.33" y="117.54" width="2.5" height="89.04"/>
 <rect x="54.64" y="117.54" width="2.5" height="89.04"/>
 <text transform="matrix(1 0 0 1.3342 -18.814 -85.095)" fill="#1a1a1a" font-family="monospace" font-size="180px" letter-spacing="-4.29px" style="line-height:0;shape-inside:url(#rect4718);white-space:pre" xml:space="preserve"/>
 <g transform="rotate(-1.6959)" fill="#1e1e1e" stroke-width="1.3086" aria-label="JEFF">
  <path d="m275.83 30.631h21.104v120.85q0 27.385-15.326 42.711-15.326 15.074-39.947 15.074-24.37 0-39.445-14.823t-15.074-41.957v-11.306h21.104v10.803q0 18.843 9.0446 28.139t24.622 9.2959 24.622-9.5471q9.2959-9.5471 9.2959-28.893z"/>
  <path d="m445.72 50.479h-90.698v55.775h84.668v19.848h-84.668v60.549h90.698v19.848h-111.55v-175.87h111.55z"/>
  <path d="m583.7 50.479h-90.698v57.031h84.668v19.848h-84.668v79.141h-20.853v-175.87h111.55z"/>
  <path d="m721.67 50.479h-90.698v57.031h84.668v19.848h-84.668v79.141h-20.853v-175.87h111.55z"/>
 </g>
</svg>
